<?xml version="1.0" standalone="no"?>
<!DOCTYPE svg PUBLIC "-//W3C//DTD SVG 20010904//EN"
 "http://www.w3.org/TR/2001/REC-SVG-20010904/DTD/svg10.dtd">
<svg version="1.0" xmlns="http://www.w3.org/2000/svg"
 width="24.000000pt" height="25.000000pt" viewBox="0 0 24.000000 25.000000"
 preserveAspectRatio="xMidYMid meet">
<metadata>
Created by potrace 1.10, written by Peter Selinger 2001-2011
</metadata>
<g transform="translate(0.000000,25.000000) scale(0.100000,-0.100000)"
fill="#000000" stroke="none">
<path d="M19 219 c-15 -15 -19 -28 -15 -47 4 -15 8 -40 10 -57 2 -16 6 -38 11
-47 5 -12 2 -20 -9 -24 -9 -3 -16 -15 -16 -25 0 -18 9 -19 120 -19 105 0 120
2 120 16 0 9 -7 22 -16 28 -13 10 -13 16 -3 38 26 59 -49 107 -77 50 -8 -16
-14 -20 -19 -12 -4 6 0 19 9 29 54 60 -57 128 -115 70z m103 -6 c37 -33 8 -83
-49 -83 -28 0 -33 -4 -33 -23 0 -16 6 -23 20 -23 25 0 27 23 3 29 -14 4 -12 5
5 6 15 1 22 -5 22 -16 0 -34 -12 -62 -24 -57 -7 3 -19 -2 -26 -11 -11 -13 -10
-15 6 -12 11 1 25 6 32 11 16 10 27 2 17 -13 -8 -13 -85 -15 -85 -2 0 5 6 11
14 14 16 6 14 103 -3 120 -46 46 52 105 101 60z m82 -86 c7 -12 7 -25 -1 -47
-10 -27 -9 -32 8 -43 32 -20 22 -27 -43 -27 l-63 0 33 20 c27 17 31 23 22 39
-13 26 -13 54 2 69 15 15 28 11 42 -11z m-68 -38 c17 -35 9 -53 -22 -47 -12 2
-18 11 -16 23 2 11 4 28 5 38 2 26 15 21 33 -14z"/>
<path d="M37 202 c-22 -24 -21 -29 7 -47 47 -31 105 7 70 46 -22 24 -56 24
-77 1z m61 -19 c-5 -24 -43 -27 -45 -3 -1 15 5 20 23 20 18 0 25 -5 22 -17z"/>
<path d="M50 70 c0 -5 5 -10 10 -10 6 0 10 5 10 10 0 6 -4 10 -10 10 -5 0 -10
-4 -10 -10z"/>
</g>
</svg>
