<?xml version="1.0" standalone="no"?>
<!DOCTYPE svg PUBLIC "-//W3C//DTD SVG 20010904//EN"
 "http://www.w3.org/TR/2001/REC-SVG-20010904/DTD/svg10.dtd">
<svg version="1.0" xmlns="http://www.w3.org/2000/svg"
 width="72.000000pt" height="75.000000pt" viewBox="0 0 72.000000 75.000000"
 preserveAspectRatio="xMidYMid meet">
<metadata>
Created by potrace 1.10, written by Peter Selinger 2001-2011
</metadata>
<g transform="translate(0.000000,75.000000) scale(0.100000,-0.100000)"
fill="#000000" stroke="none">
<path d="M110 695 c-7 -8 -20 -15 -29 -15 -23 0 -61 -44 -61 -69 0 -12 -4 -21
-10 -21 -5 0 -10 -25 -10 -56 0 -46 5 -63 30 -97 27 -39 29 -45 19 -81 -14
-49 -3 -145 17 -153 20 -7 18 -57 -4 -75 -9 -9 -27 -19 -39 -22 -20 -6 -23
-14 -23 -57 l0 -49 360 0 360 0 0 50 c0 40 -3 50 -16 50 -9 0 -32 9 -50 21
-36 22 -44 51 -21 78 8 9 20 37 27 63 16 62 1 122 -45 175 -30 35 -37 38 -82
37 -37 0 -55 -6 -71 -22 -12 -12 -22 -26 -22 -31 0 -5 -4 -11 -10 -13 -5 -1
-16 -28 -24 -58 -16 -58 -8 -117 21 -151 36 -43 1 -87 -76 -96 -41 -5 -51 -9
-51 -25 0 -10 -8 -22 -17 -25 -9 -4 -25 -15 -35 -25 -20 -20 -38 -21 -151 -12
-73 7 -77 8 -77 31 0 15 8 27 23 32 33 13 77 57 77 78 0 10 -7 31 -15 47 -18
35 -24 84 -10 87 6 2 14 -11 20 -27 5 -16 13 -32 18 -35 4 -3 11 -19 15 -34
10 -34 30 -44 38 -18 3 10 15 36 26 58 27 54 21 80 -17 81 -46 1 -55 3 -55 13
0 12 112 22 126 10 7 -6 16 -4 24 6 8 9 21 13 36 9 19 -5 24 -2 24 13 0 18 -6
19 -110 15 -95 -4 -110 -2 -116 12 -3 9 -12 16 -19 16 -7 0 -25 14 -38 30 -14
17 -30 30 -36 30 -7 0 -11 23 -11 55 0 50 3 57 38 90 20 19 42 35 49 35 6 0
13 6 15 12 3 9 30 13 84 13 82 -1 117 -14 156 -60 10 -11 22 -25 28 -32 13
-16 13 -113 0 -113 -5 0 -10 -5 -10 -11 0 -7 -8 -18 -17 -25 -10 -7 -14 -16
-10 -21 5 -4 20 6 33 22 13 17 31 37 39 46 20 21 20 103 0 119 -8 7 -15 18
-15 24 0 14 -39 45 -87 69 -43 23 -195 24 -213 2z m422 -314 c13 -5 31 -25 41
-44 17 -31 18 -37 4 -58 -12 -19 -14 -39 -8 -92 6 -59 11 -71 37 -92 16 -13
36 -24 45 -25 16 0 29 -19 29 -41 0 -10 -323 -13 -333 -3 -7 7 55 44 72 44 14
0 56 41 68 65 12 25 9 135 -5 144 -6 3 -13 23 -17 44 -6 30 -4 37 9 37 9 0 16
7 16 15 0 17 9 19 42 6z m-415 -21 c2 -8 -2 -22 -7 -30 -9 -13 -11 -13 -20 0
-16 25 -12 52 7 48 10 -2 19 -10 20 -18z"/>
<path d="M128 618 c-21 -11 -38 -26 -38 -33 0 -7 -7 -15 -15 -19 -20 -7 -19
-46 1 -74 37 -53 153 -79 221 -50 34 15 72 57 73 80 0 28 -35 78 -69 99 -41
25 -123 23 -173 -3z m168 -53 c8 -34 -2 -71 -27 -96 -15 -15 -24 -18 -32 -10
-6 6 -28 8 -52 4 -47 -6 -62 6 -45 36 7 13 7 22 0 26 -11 7 -14 48 -3 58 3 4
39 7 79 7 70 0 74 -1 80 -25z"/>
<path d="M261 301 c-6 -11 -11 -33 -11 -50 0 -16 -4 -33 -10 -36 -14 -9 -13
-78 2 -93 14 -14 48 -16 48 -3 0 5 -7 11 -15 15 -8 3 -15 17 -15 31 0 15 7 33
15 41 17 17 21 99 6 109 -6 3 -15 -3 -20 -14z"/>
</g>
</svg>
